<?xml version="1.0" encoding="utf-8" standalone="no"?>
<!DOCTYPE svg PUBLIC "-//W3C//DTD SVG 1.1//EN"
  "http://www.w3.org/Graphics/SVG/1.1/DTD/svg11.dtd">
<svg xmlns:xlink="http://www.w3.org/1999/xlink" width="460.8pt" height="345.6pt" viewBox="0 0 460.8 345.6" xmlns="http://www.w3.org/2000/svg" version="1.1">
 <metadata>
  <rdf:RDF xmlns:dc="http://purl.org/dc/elements/1.1/" xmlns:cc="http://creativecommons.org/ns#" xmlns:rdf="http://www.w3.org/1999/02/22-rdf-syntax-ns#">
   <cc:Work>
    <dc:type rdf:resource="http://purl.org/dc/dcmitype/StillImage"/>
    <dc:date>2023-11-07T12:51:32.997040</dc:date>
    <dc:format>image/svg+xml</dc:format>
    <dc:creator>
     <cc:Agent>
      <dc:title>Matplotlib v3.8.1, https://matplotlib.org/</dc:title>
     </cc:Agent>
    </dc:creator>
   </cc:Work>
  </rdf:RDF>
 </metadata>
 <defs>
  <style type="text/css">*{stroke-linejoin: round; stroke-linecap: butt}</style>
 </defs>
 <g id="figure_1">
  <g id="patch_1">
   <path d="M 0 345.6 
L 460.8 345.6 
L 460.8 0 
L 0 0 
z
" style="fill: #ffffff"/>
  </g>
  <g id="axes_1">
   <g id="patch_2">
    <path d="M 57.6 307.584 
L 414.72 307.584 
L 414.72 41.472 
L 57.6 41.472 
z
" style="fill: #ffffff"/>
   </g>
   <g id="matplotlib.axis_1">
    <g id="xtick_1">
     <g id="line2d_1">
      <defs>
       <path id="m8f8c7ea9bc" d="M 0 0 
L 0 3.5 
" style="stroke: #000000; stroke-width: 0.8"/>
      </defs>
      <g>
       <use xlink:href="#m8f8c7ea9bc" x="73.832727" y="307.584" style="stroke: #000000; stroke-width: 0.8"/>
      </g>
     </g>
     <g id="text_1">
      <!-- 0 -->
      <g transform="translate(70.651477 322.182437) scale(0.1 -0.1)">
       <defs>
        <path id="DejaVuSans-30" d="M 2034 4250 
Q 1547 4250 1301 3770 
Q 1056 3291 1056 2328 
Q 1056 1369 1301 889 
Q 1547 409 2034 409 
Q 2525 409 2770 889 
Q 3016 1369 3016 2328 
Q 3016 3291 2770 3770 
Q 2525 4250 2034 4250 
z
M 2034 4750 
Q 2819 4750 3233 4129 
Q 3647 3509 3647 2328 
Q 3647 1150 3233 529 
Q 2819 -91 2034 -91 
Q 1250 -91 836 529 
Q 422 1150 422 2328 
Q 422 3509 836 4129 
Q 1250 4750 2034 4750 
z
" transform="scale(0.015625)"/>
       </defs>
       <use xlink:href="#DejaVuSans-30"/>
      </g>
     </g>
    </g>
    <g id="xtick_2">
     <g id="line2d_2">
      <g>
       <use xlink:href="#m8f8c7ea9bc" x="153.094091" y="307.584" style="stroke: #000000; stroke-width: 0.8"/>
      </g>
     </g>
     <g id="text_2">
      <!-- 1000 -->
      <g transform="translate(140.369091 322.182437) scale(0.1 -0.1)">
       <defs>
        <path id="DejaVuSans-31" d="M 794 531 
L 1825 531 
L 1825 4091 
L 703 3866 
L 703 4441 
L 1819 4666 
L 2450 4666 
L 2450 531 
L 3481 531 
L 3481 0 
L 794 0 
L 794 531 
z
" transform="scale(0.015625)"/>
       </defs>
       <use xlink:href="#DejaVuSans-31"/>
       <use xlink:href="#DejaVuSans-30" x="63.623047"/>
       <use xlink:href="#DejaVuSans-30" x="127.246094"/>
       <use xlink:href="#DejaVuSans-30" x="190.869141"/>
      </g>
     </g>
    </g>
    <g id="xtick_3">
     <g id="line2d_3">
      <g>
       <use xlink:href="#m8f8c7ea9bc" x="232.355455" y="307.584" style="stroke: #000000; stroke-width: 0.8"/>
      </g>
     </g>
     <g id="text_3">
      <!-- 2000 -->
      <g transform="translate(219.630455 322.182437) scale(0.1 -0.1)">
       <defs>
        <path id="DejaVuSans-32" d="M 1228 531 
L 3431 531 
L 3431 0 
L 469 0 
L 469 531 
Q 828 903 1448 1529 
Q 2069 2156 2228 2338 
Q 2531 2678 2651 2914 
Q 2772 3150 2772 3378 
Q 2772 3750 2511 3984 
Q 2250 4219 1831 4219 
Q 1534 4219 1204 4116 
Q 875 4013 500 3803 
L 500 4441 
Q 881 4594 1212 4672 
Q 1544 4750 1819 4750 
Q 2544 4750 2975 4387 
Q 3406 4025 3406 3419 
Q 3406 3131 3298 2873 
Q 3191 2616 2906 2266 
Q 2828 2175 2409 1742 
Q 1991 1309 1228 531 
z
" transform="scale(0.015625)"/>
       </defs>
       <use xlink:href="#DejaVuSans-32"/>
       <use xlink:href="#DejaVuSans-30" x="63.623047"/>
       <use xlink:href="#DejaVuSans-30" x="127.246094"/>
       <use xlink:href="#DejaVuSans-30" x="190.869141"/>
      </g>
     </g>
    </g>
    <g id="xtick_4">
     <g id="line2d_4">
      <g>
       <use xlink:href="#m8f8c7ea9bc" x="311.616818" y="307.584" style="stroke: #000000; stroke-width: 0.8"/>
      </g>
     </g>
     <g id="text_4">
      <!-- 3000 -->
      <g transform="translate(298.891818 322.182437) scale(0.1 -0.1)">
       <defs>
        <path id="DejaVuSans-33" d="M 2597 2516 
Q 3050 2419 3304 2112 
Q 3559 1806 3559 1356 
Q 3559 666 3084 287 
Q 2609 -91 1734 -91 
Q 1441 -91 1130 -33 
Q 819 25 488 141 
L 488 750 
Q 750 597 1062 519 
Q 1375 441 1716 441 
Q 2309 441 2620 675 
Q 2931 909 2931 1356 
Q 2931 1769 2642 2001 
Q 2353 2234 1838 2234 
L 1294 2234 
L 1294 2753 
L 1863 2753 
Q 2328 2753 2575 2939 
Q 2822 3125 2822 3475 
Q 2822 3834 2567 4026 
Q 2313 4219 1838 4219 
Q 1578 4219 1281 4162 
Q 984 4106 628 3988 
L 628 4550 
Q 988 4650 1302 4700 
Q 1616 4750 1894 4750 
Q 2613 4750 3031 4423 
Q 3450 4097 3450 3541 
Q 3450 3153 3228 2886 
Q 3006 2619 2597 2516 
z
" transform="scale(0.015625)"/>
       </defs>
       <use xlink:href="#DejaVuSans-33"/>
       <use xlink:href="#DejaVuSans-30" x="63.623047"/>
       <use xlink:href="#DejaVuSans-30" x="127.246094"/>
       <use xlink:href="#DejaVuSans-30" x="190.869141"/>
      </g>
     </g>
    </g>
    <g id="xtick_5">
     <g id="line2d_5">
      <g>
       <use xlink:href="#m8f8c7ea9bc" x="390.878182" y="307.584" style="stroke: #000000; stroke-width: 0.8"/>
      </g>
     </g>
     <g id="text_5">
      <!-- 4000 -->
      <g transform="translate(378.153182 322.182437) scale(0.1 -0.1)">
       <defs>
        <path id="DejaVuSans-34" d="M 2419 4116 
L 825 1625 
L 2419 1625 
L 2419 4116 
z
M 2253 4666 
L 3047 4666 
L 3047 1625 
L 3713 1625 
L 3713 1100 
L 3047 1100 
L 3047 0 
L 2419 0 
L 2419 1100 
L 313 1100 
L 313 1709 
L 2253 4666 
z
" transform="scale(0.015625)"/>
       </defs>
       <use xlink:href="#DejaVuSans-34"/>
       <use xlink:href="#DejaVuSans-30" x="63.623047"/>
       <use xlink:href="#DejaVuSans-30" x="127.246094"/>
       <use xlink:href="#DejaVuSans-30" x="190.869141"/>
      </g>
     </g>
    </g>
    <g id="text_6">
     <!-- n -->
     <g transform="translate(232.99125 335.860562) scale(0.1 -0.1)">
      <defs>
       <path id="DejaVuSans-6e" d="M 3513 2113 
L 3513 0 
L 2938 0 
L 2938 2094 
Q 2938 2591 2744 2837 
Q 2550 3084 2163 3084 
Q 1697 3084 1428 2787 
Q 1159 2491 1159 1978 
L 1159 0 
L 581 0 
L 581 3500 
L 1159 3500 
L 1159 2956 
Q 1366 3272 1645 3428 
Q 1925 3584 2291 3584 
Q 2894 3584 3203 3211 
Q 3513 2838 3513 2113 
z
" transform="scale(0.015625)"/>
      </defs>
      <use xlink:href="#DejaVuSans-6e"/>
     </g>
    </g>
   </g>
   <g id="matplotlib.axis_2">
    <g id="ytick_1">
     <g id="line2d_6">
      <defs>
       <path id="m4e87b3b642" d="M 0 0 
L -3.5 0 
" style="stroke: #000000; stroke-width: 0.8"/>
      </defs>
      <g>
       <use xlink:href="#m4e87b3b642" x="57.6" y="258.740658" style="stroke: #000000; stroke-width: 0.8"/>
      </g>
     </g>
     <g id="text_7">
      <!-- 200 -->
      <g transform="translate(31.5125 262.539877) scale(0.1 -0.1)">
       <use xlink:href="#DejaVuSans-32"/>
       <use xlink:href="#DejaVuSans-30" x="63.623047"/>
       <use xlink:href="#DejaVuSans-30" x="127.246094"/>
      </g>
     </g>
    </g>
    <g id="ytick_2">
     <g id="line2d_7">
      <g>
       <use xlink:href="#m4e87b3b642" x="57.6" y="207.702684" style="stroke: #000000; stroke-width: 0.8"/>
      </g>
     </g>
     <g id="text_8">
      <!-- 250 -->
      <g transform="translate(31.5125 211.501902) scale(0.1 -0.1)">
       <defs>
        <path id="DejaVuSans-35" d="M 691 4666 
L 3169 4666 
L 3169 4134 
L 1269 4134 
L 1269 2991 
Q 1406 3038 1543 3061 
Q 1681 3084 1819 3084 
Q 2600 3084 3056 2656 
Q 3513 2228 3513 1497 
Q 3513 744 3044 326 
Q 2575 -91 1722 -91 
Q 1428 -91 1123 -41 
Q 819 9 494 109 
L 494 744 
Q 775 591 1075 516 
Q 1375 441 1709 441 
Q 2250 441 2565 725 
Q 2881 1009 2881 1497 
Q 2881 1984 2565 2268 
Q 2250 2553 1709 2553 
Q 1456 2553 1204 2497 
Q 953 2441 691 2322 
L 691 4666 
z
" transform="scale(0.015625)"/>
       </defs>
       <use xlink:href="#DejaVuSans-32"/>
       <use xlink:href="#DejaVuSans-35" x="63.623047"/>
       <use xlink:href="#DejaVuSans-30" x="127.246094"/>
      </g>
     </g>
    </g>
    <g id="ytick_3">
     <g id="line2d_8">
      <g>
       <use xlink:href="#m4e87b3b642" x="57.6" y="156.664709" style="stroke: #000000; stroke-width: 0.8"/>
      </g>
     </g>
     <g id="text_9">
      <!-- 300 -->
      <g transform="translate(31.5125 160.463928) scale(0.1 -0.1)">
       <use xlink:href="#DejaVuSans-33"/>
       <use xlink:href="#DejaVuSans-30" x="63.623047"/>
       <use xlink:href="#DejaVuSans-30" x="127.246094"/>
      </g>
     </g>
    </g>
    <g id="ytick_4">
     <g id="line2d_9">
      <g>
       <use xlink:href="#m4e87b3b642" x="57.6" y="105.626734" style="stroke: #000000; stroke-width: 0.8"/>
      </g>
     </g>
     <g id="text_10">
      <!-- 350 -->
      <g transform="translate(31.5125 109.425953) scale(0.1 -0.1)">
       <use xlink:href="#DejaVuSans-33"/>
       <use xlink:href="#DejaVuSans-35" x="63.623047"/>
       <use xlink:href="#DejaVuSans-30" x="127.246094"/>
      </g>
     </g>
    </g>
    <g id="ytick_5">
     <g id="line2d_10">
      <g>
       <use xlink:href="#m4e87b3b642" x="57.6" y="54.588759" style="stroke: #000000; stroke-width: 0.8"/>
      </g>
     </g>
     <g id="text_11">
      <!-- 400 -->
      <g transform="translate(31.5125 58.387978) scale(0.1 -0.1)">
       <use xlink:href="#DejaVuSans-34"/>
       <use xlink:href="#DejaVuSans-30" x="63.623047"/>
       <use xlink:href="#DejaVuSans-30" x="127.246094"/>
      </g>
     </g>
    </g>
    <g id="text_12">
     <!-- Cycles -->
     <g transform="translate(25.432812 190.798312) rotate(-90) scale(0.1 -0.1)">
      <defs>
       <path id="DejaVuSans-43" d="M 4122 4306 
L 4122 3641 
Q 3803 3938 3442 4084 
Q 3081 4231 2675 4231 
Q 1875 4231 1450 3742 
Q 1025 3253 1025 2328 
Q 1025 1406 1450 917 
Q 1875 428 2675 428 
Q 3081 428 3442 575 
Q 3803 722 4122 1019 
L 4122 359 
Q 3791 134 3420 21 
Q 3050 -91 2638 -91 
Q 1578 -91 968 557 
Q 359 1206 359 2328 
Q 359 3453 968 4101 
Q 1578 4750 2638 4750 
Q 3056 4750 3426 4639 
Q 3797 4528 4122 4306 
z
" transform="scale(0.015625)"/>
       <path id="DejaVuSans-79" d="M 2059 -325 
Q 1816 -950 1584 -1140 
Q 1353 -1331 966 -1331 
L 506 -1331 
L 506 -850 
L 844 -850 
Q 1081 -850 1212 -737 
Q 1344 -625 1503 -206 
L 1606 56 
L 191 3500 
L 800 3500 
L 1894 763 
L 2988 3500 
L 3597 3500 
L 2059 -325 
z
" transform="scale(0.015625)"/>
       <path id="DejaVuSans-63" d="M 3122 3366 
L 3122 2828 
Q 2878 2963 2633 3030 
Q 2388 3097 2138 3097 
Q 1578 3097 1268 2742 
Q 959 2388 959 1747 
Q 959 1106 1268 751 
Q 1578 397 2138 397 
Q 2388 397 2633 464 
Q 2878 531 3122 666 
L 3122 134 
Q 2881 22 2623 -34 
Q 2366 -91 2075 -91 
Q 1284 -91 818 406 
Q 353 903 353 1747 
Q 353 2603 823 3093 
Q 1294 3584 2113 3584 
Q 2378 3584 2631 3529 
Q 2884 3475 3122 3366 
z
" transform="scale(0.015625)"/>
       <path id="DejaVuSans-6c" d="M 603 4863 
L 1178 4863 
L 1178 0 
L 603 0 
L 603 4863 
z
" transform="scale(0.015625)"/>
       <path id="DejaVuSans-65" d="M 3597 1894 
L 3597 1613 
L 953 1613 
Q 991 1019 1311 708 
Q 1631 397 2203 397 
Q 2534 397 2845 478 
Q 3156 559 3463 722 
L 3463 178 
Q 3153 47 2828 -22 
Q 2503 -91 2169 -91 
Q 1331 -91 842 396 
Q 353 884 353 1716 
Q 353 2575 817 3079 
Q 1281 3584 2069 3584 
Q 2775 3584 3186 3129 
Q 3597 2675 3597 1894 
z
M 3022 2063 
Q 3016 2534 2758 2815 
Q 2500 3097 2075 3097 
Q 1594 3097 1305 2825 
Q 1016 2553 972 2059 
L 3022 2063 
z
" transform="scale(0.015625)"/>
       <path id="DejaVuSans-73" d="M 2834 3397 
L 2834 2853 
Q 2591 2978 2328 3040 
Q 2066 3103 1784 3103 
Q 1356 3103 1142 2972 
Q 928 2841 928 2578 
Q 928 2378 1081 2264 
Q 1234 2150 1697 2047 
L 1894 2003 
Q 2506 1872 2764 1633 
Q 3022 1394 3022 966 
Q 3022 478 2636 193 
Q 2250 -91 1575 -91 
Q 1294 -91 989 -36 
Q 684 19 347 128 
L 347 722 
Q 666 556 975 473 
Q 1284 391 1588 391 
Q 1994 391 2212 530 
Q 2431 669 2431 922 
Q 2431 1156 2273 1281 
Q 2116 1406 1581 1522 
L 1381 1569 
Q 847 1681 609 1914 
Q 372 2147 372 2553 
Q 372 3047 722 3315 
Q 1072 3584 1716 3584 
Q 2034 3584 2315 3537 
Q 2597 3491 2834 3397 
z
" transform="scale(0.015625)"/>
      </defs>
      <use xlink:href="#DejaVuSans-43"/>
      <use xlink:href="#DejaVuSans-79" x="69.824219"/>
      <use xlink:href="#DejaVuSans-63" x="129.003906"/>
      <use xlink:href="#DejaVuSans-6c" x="183.984375"/>
      <use xlink:href="#DejaVuSans-65" x="211.767578"/>
      <use xlink:href="#DejaVuSans-73" x="273.291016"/>
     </g>
    </g>
   </g>
   <g id="line2d_11">
    <path d="M 73.832727 53.568 
L 73.911989 53.568 
L 74.070511 291.404962 
L 74.149773 289.363443 
L 74.54608 293.446481 
L 74.783864 291.404962 
L 75.021648 291.404962 
L 75.100909 289.363443 
L 75.18017 291.404962 
L 75.259432 289.363443 
L 75.576477 292.425722 
L 75.655739 292.425722 
L 75.814261 291.404962 
L 76.052045 291.404962 
L 76.131307 289.363443 
L 76.210568 291.404962 
L 76.28983 289.363443 
L 76.448352 291.404962 
L 76.765398 291.404962 
L 76.844659 293.446481 
L 76.92392 292.425722 
L 77.003182 293.446481 
L 77.082443 292.425722 
L 77.240966 287.321924 
L 77.399489 293.446481 
L 77.637273 289.363443 
L 77.795795 291.404962 
L 77.875057 291.404962 
L 78.03358 290.384203 
L 78.112841 290.384203 
L 78.271364 289.363443 
L 78.350625 289.363443 
L 78.588409 291.404962 
L 78.66767 291.404962 
L 78.826193 292.425722 
L 78.984716 292.425722 
L 79.063977 290.384203 
L 79.143239 293.446481 
L 79.2225 291.404962 
L 79.301761 293.446481 
L 79.381023 291.404962 
L 79.460284 293.446481 
L 79.539545 288.342684 
L 79.698068 291.404962 
L 79.77733 291.404962 
L 79.935852 292.425722 
L 80.252898 289.363443 
L 80.41142 291.404962 
L 81.045511 291.404962 
L 81.283295 289.363443 
L 81.441818 289.363443 
L 81.679602 293.446481 
L 81.758864 289.363443 
L 81.917386 291.404962 
L 81.996648 291.404962 
L 82.234432 289.363443 
L 82.551477 289.363443 
L 82.71 291.404962 
L 82.789261 291.404962 
L 82.947784 290.384203 
L 83.027045 290.384203 
L 83.185568 293.446481 
L 83.344091 291.404962 
L 83.89892 291.404962 
L 83.978182 290.384203 
L 84.136705 291.404962 
L 84.295227 291.404962 
L 84.45375 290.384203 
L 84.612273 291.404962 
L 84.770795 291.404962 
L 84.850057 290.384203 
L 85.00858 291.404962 
L 85.64267 291.404962 
L 85.801193 290.384203 
L 85.959716 291.404962 
L 86.1975 291.404962 
L 86.276761 293.446481 
L 86.356023 291.404962 
L 86.435284 293.446481 
L 86.514545 291.404962 
L 86.673068 292.425722 
L 86.75233 292.425722 
L 86.910852 291.404962 
L 87.227898 291.404962 
L 87.38642 293.446481 
L 87.544943 293.446481 
L 87.703466 292.425722 
L 87.782727 292.425722 
L 87.94125 291.404962 
L 88.020511 291.404962 
L 88.258295 293.446481 
L 88.49608 291.404962 
L 88.575341 291.404962 
L 88.733864 288.342684 
L 88.813125 288.342684 
L 88.971648 291.404962 
L 89.13017 290.384203 
L 89.367955 292.425722 
L 89.526477 289.363443 
L 89.764261 291.404962 
L 89.922784 290.384203 
L 90.081307 292.425722 
L 90.160568 292.425722 
L 90.398352 289.363443 
L 90.556875 292.425722 
L 90.715398 292.425722 
L 90.87392 290.384203 
L 91.032443 291.404962 
L 91.42875 291.404962 
L 91.587273 292.425722 
L 92.142102 292.425722 
L 92.300625 293.446481 
L 92.61767 293.446481 
L 92.696932 289.363443 
L 92.776193 291.404962 
L 92.934716 289.363443 
L 93.013977 289.363443 
L 93.1725 291.404962 
L 93.410284 291.404962 
L 93.568807 290.384203 
L 93.648068 290.384203 
L 93.72733 292.425722 
L 93.965114 290.384203 
L 94.123636 290.384203 
L 94.282159 291.404962 
L 94.599205 291.404962 
L 94.757727 288.342684 
L 94.836989 290.384203 
L 94.91625 288.342684 
L 95.074773 291.404962 
L 95.154034 292.425722 
L 95.312557 291.404962 
L 95.788125 291.404962 
L 95.946648 292.425722 
L 96.10517 292.425722 
L 96.501477 288.342684 
L 96.66 289.363443 
L 96.739261 289.363443 
L 96.897784 292.425722 
L 97.056307 291.404962 
L 97.135568 291.404962 
L 97.21483 290.384203 
L 97.294091 291.404962 
L 97.531875 289.363443 
L 97.690398 291.404962 
L 97.769659 291.404962 
L 97.928182 292.425722 
L 98.007443 292.425722 
L 98.245227 290.384203 
L 98.40375 292.425722 
L 98.562273 291.404962 
L 98.720795 291.404962 
L 98.800057 287.321924 
L 98.879318 291.404962 
L 98.95858 290.384203 
L 99.117102 291.404962 
L 99.196364 291.404962 
L 99.354886 289.363443 
L 99.434148 289.363443 
L 99.671932 291.404962 
L 99.830455 291.404962 
L 99.909716 293.446481 
L 100.068239 291.404962 
L 100.226761 291.404962 
L 100.385284 292.425722 
L 100.543807 291.404962 
L 100.70233 292.425722 
L 100.781591 292.425722 
L 101.019375 288.342684 
L 101.098636 288.342684 
L 101.257159 291.404962 
L 101.415682 292.425722 
L 101.574205 292.425722 
L 101.653466 288.342684 
L 101.732727 292.425722 
L 101.811989 289.363443 
L 101.970511 291.404962 
L 102.129034 292.425722 
L 102.287557 291.404962 
L 102.44608 293.446481 
L 102.604602 290.384203 
L 102.763125 291.404962 
L 102.842386 291.404962 
L 102.921648 290.384203 
L 103.08017 291.404962 
L 103.159432 291.404962 
L 103.317955 289.363443 
L 103.476477 291.404962 
L 103.555739 291.404962 
L 103.714261 293.446481 
L 103.952045 289.363443 
L 104.031307 293.446481 
L 104.18983 290.384203 
L 104.269091 290.384203 
L 104.427614 292.425722 
L 104.586136 291.404962 
L 104.665398 291.404962 
L 104.82392 292.425722 
L 105.140966 289.363443 
L 105.458011 289.363443 
L 105.537273 292.425722 
L 105.616534 290.384203 
L 105.775057 292.425722 
L 105.854318 292.425722 
L 106.012841 290.384203 
L 106.171364 291.404962 
L 106.250625 291.404962 
L 106.409148 292.425722 
L 106.488409 292.425722 
L 106.726193 290.384203 
L 106.805455 290.384203 
L 106.963977 289.363443 
L 107.1225 291.404962 
L 107.439545 291.404962 
L 107.598068 293.446481 
L 107.67733 293.446481 
L 107.835852 290.384203 
L 107.915114 290.384203 
L 108.073636 291.404962 
L 108.232159 291.404962 
L 108.390682 290.384203 
L 108.469943 290.384203 
L 108.628466 291.404962 
L 108.945511 291.404962 
L 109.104034 290.384203 
L 109.262557 292.425722 
L 109.341818 292.425722 
L 109.42108 289.363443 
L 109.500341 291.404962 
L 109.579602 289.363443 
L 109.817386 293.446481 
L 109.975909 291.404962 
L 110.05517 291.404962 
L 110.213693 293.446481 
L 110.372216 291.404962 
L 110.451477 291.404962 
L 110.530739 292.425722 
L 110.847784 289.363443 
L 111.006307 291.404962 
L 111.244091 291.404962 
L 111.323352 293.446481 
L 111.402614 291.404962 
L 111.561136 293.446481 
L 111.640398 293.446481 
L 111.79892 291.404962 
L 111.878182 291.404962 
L 112.036705 289.363443 
L 112.195227 291.404962 
L 112.35375 291.404962 
L 112.433011 290.384203 
L 112.670795 292.425722 
L 112.750057 292.425722 
L 112.90858 291.404962 
L 113.463409 291.404962 
L 113.621932 289.363443 
L 113.859716 289.363443 
L 114.0975 293.446481 
L 114.256023 291.404962 
L 114.414545 291.404962 
L 114.573068 290.384203 
L 114.731591 293.446481 
L 114.890114 290.384203 
L 114.969375 290.384203 
L 115.127898 289.363443 
L 115.28642 291.404962 
L 115.365682 291.404962 
L 115.444943 289.363443 
L 115.682727 293.446481 
L 115.84125 289.363443 
L 115.920511 289.363443 
L 116.079034 293.446481 
L 116.158295 293.446481 
L 116.316818 291.404962 
L 116.554602 291.404962 
L 116.713125 293.446481 
L 116.792386 293.446481 
L 116.950909 290.384203 
L 117.109432 291.404962 
L 117.902045 291.404962 
L 117.981307 290.384203 
L 118.060568 291.404962 
L 118.13983 289.363443 
L 118.298352 291.404962 
L 118.377614 291.404962 
L 118.536136 290.384203 
L 118.694659 293.446481 
L 118.932443 289.363443 
L 119.011705 289.363443 
L 119.170227 291.404962 
L 119.249489 291.404962 
L 119.408011 289.363443 
L 119.566534 291.404962 
L 119.645795 291.404962 
L 119.725057 289.363443 
L 119.88358 290.384203 
L 119.962841 290.384203 
L 120.200625 292.425722 
L 120.359148 291.404962 
L 120.596932 291.404962 
L 120.913977 285.280405 
L 121.151761 292.425722 
L 121.310284 292.425722 
L 121.468807 291.404962 
L 121.548068 291.404962 
L 121.706591 287.321924 
L 121.865114 292.425722 
L 121.944375 292.425722 
L 122.102898 288.342684 
L 122.182159 288.342684 
L 122.340682 290.384203 
L 122.419943 290.384203 
L 122.578466 291.404962 
L 123.37108 291.404962 
L 123.450341 292.425722 
L 123.688125 290.384203 
L 123.846648 290.384203 
L 123.925909 289.363443 
L 124.163693 293.446481 
L 124.242955 293.446481 
L 124.480739 289.363443 
L 124.639261 291.404962 
L 124.718523 291.404962 
L 124.877045 289.363443 
L 125.035568 291.404962 
L 125.11483 291.404962 
L 125.194091 290.384203 
L 125.352614 291.404962 
L 125.431875 291.404962 
L 125.590398 289.363443 
L 125.828182 289.363443 
L 125.986705 291.404962 
L 126.145227 291.404962 
L 126.30375 290.384203 
L 126.541534 292.425722 
L 126.620795 291.404962 
L 126.85858 293.446481 
L 127.096364 291.404962 
L 127.175625 291.404962 
L 127.334148 289.363443 
L 127.413409 289.363443 
L 127.571932 291.404962 
L 127.651193 291.404962 
L 127.809716 293.446481 
L 127.968239 289.363443 
L 128.206023 293.446481 
L 128.364545 291.404962 
L 128.523068 272.010532 
L 128.681591 291.404962 
L 128.840114 291.404962 
L 128.998636 292.425722 
L 129.157159 291.404962 
L 129.23642 291.404962 
L 129.394943 293.446481 
L 129.553466 292.425722 
L 129.632727 292.425722 
L 129.79125 291.404962 
L 130.029034 291.404962 
L 130.187557 293.446481 
L 130.504602 293.446481 
L 130.663125 289.363443 
L 130.742386 291.404962 
L 130.821648 289.363443 
L 130.98017 292.425722 
L 131.059432 292.425722 
L 131.217955 290.384203 
L 131.297216 289.363443 
L 131.376477 293.446481 
L 131.455739 289.363443 
L 131.535 290.384203 
L 131.693523 290.384203 
L 131.772784 291.404962 
L 131.931307 290.384203 
L 132.248352 290.384203 
L 132.406875 293.446481 
L 132.565398 291.404962 
L 132.644659 291.404962 
L 132.803182 293.446481 
L 133.040966 291.404962 
L 133.199489 291.404962 
L 133.358011 290.384203 
L 133.516534 291.404962 
L 133.595795 291.404962 
L 133.675057 290.384203 
L 133.912841 292.425722 
L 134.229886 289.363443 
L 134.388409 292.425722 
L 134.626193 290.384203 
L 134.784716 290.384203 
L 134.943239 289.363443 
L 135.181023 291.404962 
L 135.339545 291.404962 
L 135.498068 292.425722 
L 135.735852 292.425722 
L 135.894375 291.404962 
L 136.132159 291.404962 
L 136.290682 293.446481 
L 136.449205 291.404962 
L 137.162557 291.404962 
L 137.32108 289.363443 
L 137.400341 290.384203 
L 137.479602 289.363443 
L 137.638125 291.404962 
L 137.875909 291.404962 
L 138.034432 293.446481 
L 138.351477 290.384203 
L 138.51 293.446481 
L 138.747784 289.363443 
L 138.985568 293.446481 
L 139.06483 293.446481 
L 139.223352 291.404962 
L 139.461136 291.404962 
L 139.619659 292.425722 
L 139.778182 292.425722 
L 139.857443 291.404962 
L 139.936705 293.446481 
L 140.095227 291.404962 
L 140.729318 291.404962 
L 140.887841 292.425722 
L 140.967102 292.425722 
L 141.125625 289.363443 
L 141.284148 290.384203 
L 141.363409 290.384203 
L 141.521932 291.404962 
L 141.680455 291.404962 
L 141.838977 290.384203 
L 141.918239 290.384203 
L 142.076761 291.404962 
L 142.156023 291.404962 
L 142.235284 289.363443 
L 142.314545 292.425722 
L 142.393807 288.342684 
L 142.55233 292.425722 
L 142.631591 292.425722 
L 142.790114 291.404962 
L 143.503466 291.404962 
L 143.661989 292.425722 
L 143.820511 289.363443 
L 144.058295 291.404962 
L 144.216818 291.404962 
L 144.375341 290.384203 
L 144.454602 290.384203 
L 144.613125 291.404962 
L 145.009432 291.404962 
L 145.167955 293.446481 
L 145.405739 290.384203 
L 145.564261 291.404962 
L 145.722784 289.363443 
L 145.802045 289.363443 
L 145.881307 292.425722 
L 145.960568 291.404962 
L 146.119091 291.404962 
L 146.277614 289.363443 
L 146.356875 289.363443 
L 146.515398 292.425722 
L 146.67392 291.404962 
L 146.753182 291.404962 
L 146.911705 289.363443 
L 147.149489 292.425722 
L 147.466534 289.363443 
L 147.545795 290.384203 
L 147.704318 293.446481 
L 147.862841 289.363443 
L 148.021364 291.404962 
L 148.100625 292.425722 
L 148.259148 290.384203 
L 148.338409 290.384203 
L 148.496932 291.404962 
L 148.576193 291.404962 
L 148.655455 290.384203 
L 148.893239 292.425722 
L 149.051761 291.404962 
L 149.131023 291.404962 
L 149.210284 290.384203 
L 149.289545 291.404962 
L 149.448068 290.384203 
L 149.52733 290.384203 
L 149.606591 289.363443 
L 149.844375 291.404962 
L 150.16142 291.404962 
L 150.399205 289.363443 
L 150.557727 291.404962 
L 150.636989 290.384203 
L 150.874773 292.425722 
L 151.033295 292.425722 
L 151.350341 289.363443 
L 151.508864 291.404962 
L 151.667386 290.384203 
L 151.746648 290.384203 
L 151.90517 289.363443 
L 151.984432 289.363443 
L 152.142955 292.425722 
L 152.301477 289.363443 
L 152.697784 289.363443 
L 152.856307 290.384203 
L 152.935568 290.384203 
L 153.094091 289.363443 
L 153.252614 289.363443 
L 153.411136 291.404962 
L 153.569659 291.404962 
L 153.728182 293.446481 
L 153.807443 293.446481 
L 154.045227 291.404962 
L 154.20375 282.218127 
L 154.362273 291.404962 
L 154.441534 289.363443 
L 154.600057 290.384203 
L 154.75858 290.384203 
L 154.917102 291.404962 
L 155.234148 291.404962 
L 155.39267 290.384203 
L 155.551193 290.384203 
L 155.709716 293.446481 
L 155.788977 291.404962 
L 155.868239 293.446481 
L 156.026761 291.404962 
L 156.106023 291.404962 
L 156.264545 293.446481 
L 156.50233 287.321924 
L 156.740114 292.425722 
L 156.977898 292.425722 
L 157.057159 289.363443 
L 157.13642 293.446481 
L 157.294943 291.404962 
L 157.453466 291.404962 
L 157.532727 292.425722 
L 157.770511 290.384203 
L 157.849773 290.384203 
L 157.929034 289.363443 
L 158.008295 292.425722 
L 158.087557 288.342684 
L 158.24608 291.404962 
L 158.404602 291.404962 
L 158.563125 292.425722 
L 158.721648 289.363443 
L 158.800909 287.321924 
L 159.038693 291.404962 
L 159.355739 291.404962 
L 159.593523 289.363443 
L 159.752045 291.404962 
L 159.98983 291.404962 
L 160.069091 289.363443 
L 160.227614 291.404962 
L 160.386136 292.425722 
L 160.544659 292.425722 
L 160.782443 290.384203 
L 161.020227 292.425722 
L 161.17875 292.425722 
L 161.337273 291.404962 
L 161.495795 291.404962 
L 161.575057 293.446481 
L 161.654318 289.363443 
L 161.73358 292.425722 
L 161.812841 291.404962 
L 162.050625 293.446481 
L 162.209148 289.363443 
L 162.36767 291.404962 
L 162.526193 290.384203 
L 162.684716 291.404962 
L 162.763977 291.404962 
L 162.9225 292.425722 
L 163.081023 291.404962 
L 163.398068 291.404962 
L 163.556591 289.363443 
L 163.635852 289.363443 
L 163.715114 290.384203 
L 163.873636 293.446481 
L 164.032159 291.404962 
L 164.190682 291.404962 
L 164.269943 288.342684 
L 164.349205 290.384203 
L 164.428466 287.321924 
L 164.586989 290.384203 
L 164.66625 290.384203 
L 164.824773 289.363443 
L 164.983295 291.404962 
L 165.22108 291.404962 
L 165.379602 290.384203 
L 165.538125 290.384203 
L 165.696648 286.301165 
L 165.85517 291.404962 
L 166.013693 292.425722 
L 166.092955 292.425722 
L 166.172216 291.404962 
L 166.251477 293.446481 
L 166.41 291.404962 
L 166.489261 291.404962 
L 166.568523 290.384203 
L 166.727045 291.404962 
L 166.806307 291.404962 
L 166.96483 292.425722 
L 167.123352 289.363443 
L 167.281875 292.425722 
L 167.361136 292.425722 
L 167.519659 290.384203 
L 167.59892 290.384203 
L 167.836705 292.425722 
L 167.915966 292.425722 
L 168.074489 291.404962 
L 168.233011 291.404962 
L 168.391534 289.363443 
L 168.470795 289.363443 
L 168.550057 290.384203 
L 168.629318 289.363443 
L 168.70858 291.404962 
L 168.787841 289.363443 
L 169.025625 293.446481 
L 169.184148 291.404962 
L 169.263409 291.404962 
L 169.421932 292.425722 
L 169.580455 292.425722 
L 169.659716 290.384203 
L 169.818239 291.404962 
L 169.8975 291.404962 
L 170.135284 289.363443 
L 170.214545 290.384203 
L 170.293807 289.363443 
L 170.531591 291.404962 
L 170.690114 290.384203 
L 170.769375 290.384203 
L 170.848636 291.404962 
L 170.927898 290.384203 
L 171.007159 291.404962 
L 171.08642 290.384203 
L 171.244943 291.404962 
L 171.403466 291.404962 
L 171.482727 290.384203 
L 171.720511 293.446481 
L 171.958295 291.404962 
L 172.433864 291.404962 
L 172.513125 289.363443 
L 172.592386 291.404962 
L 172.671648 289.363443 
L 172.750909 291.404962 
L 172.988693 285.280405 
L 173.226477 292.425722 
L 173.305739 290.384203 
L 173.464261 292.425722 
L 173.781307 292.425722 
L 173.93983 291.404962 
L 174.098352 293.446481 
L 174.256875 291.404962 
L 174.336136 291.404962 
L 174.494659 292.425722 
L 174.732443 290.384203 
L 174.890966 291.404962 
L 175.049489 291.404962 
L 175.12875 289.363443 
L 175.208011 292.425722 
L 175.287273 290.384203 
L 175.366534 292.425722 
L 175.445795 290.384203 
L 175.604318 291.404962 
L 175.921364 291.404962 
L 176.079886 290.384203 
L 176.238409 290.384203 
L 176.396932 289.363443 
L 176.476193 289.363443 
L 176.555455 291.404962 
L 176.634716 273.031291 
L 176.793239 291.404962 
L 177.110284 291.404962 
L 177.189545 292.425722 
L 177.348068 291.404962 
L 177.585852 291.404962 
L 177.744375 289.363443 
L 177.902898 293.446481 
L 178.140682 285.280405 
L 178.219943 286.301165 
L 178.378466 285.280405 
L 178.536989 277.114329 
L 178.695511 280.176608 
L 179.012557 283.238886 
L 179.17108 281.197367 
L 179.250341 281.197367 
L 179.646648 255.67838 
L 179.884432 293.446481 
L 179.963693 293.446481 
L 180.122216 290.384203 
L 180.201477 290.384203 
L 180.36 291.404962 
L 180.518523 291.404962 
L 180.677045 289.363443 
L 180.835568 292.425722 
L 180.994091 289.363443 
L 181.152614 281.197367 
L 181.231875 282.218127 
L 181.390398 290.384203 
L 181.54892 289.363443 
L 181.707443 291.404962 
L 181.865966 291.404962 
L 182.10375 293.446481 
L 182.262273 293.446481 
L 182.420795 291.404962 
L 182.500057 291.404962 
L 182.65858 289.363443 
L 182.737841 289.363443 
L 182.896364 292.425722 
L 182.975625 292.425722 
L 183.134148 290.384203 
L 183.29267 291.404962 
L 183.609716 291.404962 
L 183.688977 289.363443 
L 183.768239 291.404962 
L 183.8475 290.384203 
L 183.926761 291.404962 
L 184.006023 290.384203 
L 184.164545 291.404962 
L 184.40233 291.404962 
L 184.560852 290.384203 
L 184.640114 290.384203 
L 184.719375 291.404962 
L 184.957159 289.363443 
L 185.03642 289.363443 
L 185.194943 291.404962 
L 185.59125 291.404962 
L 185.670511 292.425722 
L 185.829034 291.404962 
L 185.908295 291.404962 
L 186.066818 293.446481 
L 186.14608 292.425722 
L 186.225341 289.363443 
L 186.304602 292.425722 
L 186.383864 288.342684 
L 186.463125 289.363443 
L 186.542386 289.363443 
L 186.78017 291.404962 
L 186.938693 289.363443 
L 187.017955 289.363443 
L 187.255739 293.446481 
L 187.414261 290.384203 
L 187.652045 293.446481 
L 187.731307 292.425722 
L 187.810568 293.446481 
L 188.048352 289.363443 
L 188.127614 292.425722 
L 188.206875 291.404962 
L 188.365398 291.404962 
L 188.52392 290.384203 
L 188.682443 290.384203 
L 188.761705 292.425722 
L 188.920227 291.404962 
L 189.395795 291.404962 
L 189.475057 290.384203 
L 189.63358 277.114329 
L 189.792102 293.446481 
L 189.950625 291.404962 
L 190.109148 291.404962 
L 190.188409 292.425722 
L 190.26767 291.404962 
L 190.346932 292.425722 
L 190.426193 291.404962 
L 190.584716 292.425722 
L 190.663977 292.425722 
L 190.8225 290.384203 
L 190.901761 290.384203 
L 191.060284 293.446481 
L 191.139545 293.446481 
L 191.37733 291.404962 
L 191.694375 291.404962 
L 191.773636 289.363443 
L 191.852898 291.404962 
L 191.932159 286.301165 
L 192.01142 291.404962 
L 192.090682 282.218127 
L 192.249205 291.404962 
L 192.407727 291.404962 
L 192.56625 160.747747 
L 192.645511 160.747747 
L 192.804034 292.425722 
L 192.883295 292.425722 
L 192.962557 293.446481 
L 193.12108 285.280405 
L 193.200341 285.280405 
L 193.358864 292.425722 
L 193.517386 291.404962 
L 193.675909 291.404962 
L 193.75517 292.425722 
L 193.913693 291.404962 
L 194.230739 291.404962 
L 194.31 292.425722 
L 194.468523 291.404962 
L 194.547784 291.404962 
L 194.627045 289.363443 
L 194.706307 291.404962 
L 194.86483 289.363443 
L 194.944091 289.363443 
L 195.023352 288.342684 
L 195.102614 291.404962 
L 195.181875 289.363443 
L 195.261136 291.404962 
L 195.340398 289.363443 
L 195.419659 291.404962 
L 195.578182 290.384203 
L 195.736705 290.384203 
L 195.895227 291.404962 
L 196.767102 291.404962 
L 196.846364 290.384203 
L 197.004886 291.404962 
L 197.084148 291.404962 
L 197.24267 289.363443 
L 197.401193 292.425722 
L 197.480455 291.404962 
L 197.559716 292.425722 
L 197.638977 288.342684 
L 197.718239 291.404962 
L 197.7975 287.321924 
L 197.956023 290.384203 
L 198.114545 291.404962 
L 198.35233 287.321924 
L 198.431591 287.321924 
L 198.510852 285.280405 
L 198.590114 287.321924 
L 198.669375 285.280405 
L 198.748636 291.404962 
L 198.827898 285.280405 
L 198.98642 291.404962 
L 199.065682 291.404962 
L 199.224205 293.446481 
L 199.303466 293.446481 
L 199.461989 289.363443 
L 199.620511 291.404962 
L 199.779034 291.404962 
L 199.858295 290.384203 
L 200.09608 292.425722 
L 200.254602 289.363443 
L 200.333864 289.363443 
L 200.492386 291.404962 
L 200.650909 291.404962 
L 200.809432 293.446481 
L 200.967955 291.404962 
L 201.205739 293.446481 
L 201.522784 290.384203 
L 201.760568 290.384203 
L 201.83983 287.321924 
L 201.919091 291.404962 
L 201.998352 289.363443 
L 202.077614 293.446481 
L 202.236136 291.404962 
L 202.632443 291.404962 
L 202.790966 293.446481 
L 202.949489 291.404962 
L 203.02875 291.404962 
L 203.266534 287.321924 
L 203.425057 292.425722 
L 203.504318 292.425722 
L 203.58358 293.446481 
L 203.662841 292.425722 
L 203.742102 293.446481 
L 203.900625 289.363443 
L 203.979886 289.363443 
L 204.138409 291.404962 
L 204.296932 289.363443 
L 204.534716 291.404962 
L 204.931023 291.404962 
L 205.089545 289.363443 
L 205.248068 291.404962 
L 205.485852 293.446481 
L 205.565114 293.446481 
L 205.802898 291.404962 
L 205.96142 292.425722 
L 206.040682 292.425722 
L 206.278466 289.363443 
L 206.51625 291.404962 
L 206.833295 291.404962 
L 206.912557 290.384203 
L 206.991818 291.404962 
L 207.07108 290.384203 
L 207.229602 291.404962 
L 207.546648 291.404962 
L 207.70517 289.363443 
L 207.784432 289.363443 
L 208.022216 292.425722 
L 208.180739 289.363443 
L 208.339261 291.404962 
L 208.497784 291.404962 
L 208.656307 292.425722 
L 208.81483 289.363443 
L 208.894091 289.363443 
L 209.131875 293.446481 
L 209.369659 289.363443 
L 209.528182 292.425722 
L 209.607443 291.404962 
L 209.686705 292.425722 
L 209.845227 291.404962 
L 209.924489 291.404962 
L 210.162273 289.363443 
L 210.241534 291.404962 
L 210.320795 289.363443 
L 210.479318 291.404962 
L 210.796364 291.404962 
L 210.954886 293.446481 
L 211.19267 291.404962 
L 211.271932 291.404962 
L 211.430455 292.425722 
L 211.509716 292.425722 
L 211.668239 291.404962 
L 212.064545 291.404962 
L 212.143807 290.384203 
L 212.223068 291.404962 
L 212.30233 290.384203 
L 212.460852 291.404962 
L 212.857159 291.404962 
L 212.93642 292.425722 
L 213.015682 291.404962 
L 213.094943 292.425722 
L 213.174205 291.404962 
L 213.332727 292.425722 
L 213.411989 292.425722 
L 213.649773 288.342684 
L 213.729034 288.342684 
L 213.887557 289.363443 
L 213.966818 289.363443 
L 214.125341 293.446481 
L 214.283864 292.425722 
L 214.442386 285.280405 
L 214.68017 291.404962 
L 214.838693 291.404962 
L 214.997216 292.425722 
L 215.076477 292.425722 
L 215.235 291.404962 
L 215.314261 291.404962 
L 215.472784 293.446481 
L 215.552045 292.425722 
L 215.710568 293.446481 
L 215.78983 293.446481 
L 215.948352 290.384203 
L 216.186136 292.425722 
L 216.265398 292.425722 
L 216.503182 290.384203 
L 216.582443 290.384203 
L 216.740966 291.404962 
L 216.97875 291.404962 
L 217.137273 289.363443 
L 217.454318 292.425722 
L 217.771364 289.363443 
L 217.929886 291.404962 
L 218.009148 291.404962 
L 218.088409 289.363443 
L 218.246932 291.404962 
L 218.405455 291.404962 
L 218.563977 290.384203 
L 218.643239 290.384203 
L 218.801761 291.404962 
L 219.039545 291.404962 
L 219.118807 290.384203 
L 219.27733 291.404962 
L 219.435852 291.404962 
L 219.594375 290.384203 
L 219.752898 290.384203 
L 219.91142 291.404962 
L 220.46625 291.404962 
L 220.624773 293.446481 
L 220.704034 293.446481 
L 220.941818 291.404962 
L 221.100341 292.425722 
L 221.179602 292.425722 
L 221.258864 293.446481 
L 221.496648 289.363443 
L 221.575909 291.404962 
L 221.65517 289.363443 
L 221.892955 293.446481 
L 221.972216 293.446481 
L 222.21 289.363443 
L 222.289261 291.404962 
L 222.368523 289.363443 
L 222.606307 293.446481 
L 222.76483 293.446481 
L 222.923352 289.363443 
L 223.081875 283.238886 
L 223.240398 291.404962 
L 223.39892 292.425722 
L 223.478182 292.425722 
L 223.636705 291.404962 
L 223.95375 291.404962 
L 224.112273 292.425722 
L 224.270795 289.363443 
L 224.429318 289.363443 
L 224.587841 290.384203 
L 224.825625 290.384203 
L 224.984148 289.363443 
L 225.063409 289.363443 
L 225.14267 291.404962 
L 225.221932 289.363443 
L 225.301193 291.404962 
L 225.459716 289.363443 
L 225.6975 289.363443 
L 225.935284 291.404962 
L 226.014545 288.342684 
L 226.093807 290.384203 
L 226.173068 289.363443 
L 226.410852 291.404962 
L 226.569375 291.404962 
L 226.727898 290.384203 
L 226.88642 292.425722 
L 227.044943 291.404962 
L 227.203466 291.404962 
L 227.361989 289.363443 
L 227.520511 291.404962 
L 227.679034 291.404962 
L 227.837557 293.446481 
L 228.075341 289.363443 
L 228.233864 291.404962 
L 228.867955 291.404962 
L 229.026477 272.010532 
L 229.185 293.446481 
L 229.264261 293.446481 
L 229.422784 291.404962 
L 229.581307 292.425722 
L 229.73983 289.363443 
L 230.056875 292.425722 
L 230.136136 291.404962 
L 230.37392 293.446481 
L 230.611705 290.384203 
L 230.849489 292.425722 
L 231.008011 290.384203 
L 231.166534 293.446481 
L 231.245795 293.446481 
L 231.404318 291.404962 
L 231.642102 289.363443 
L 231.721364 289.363443 
L 231.959148 291.404962 
L 232.11767 291.404962 
L 232.276193 292.425722 
L 232.355455 292.425722 
L 232.513977 290.384203 
L 232.593239 291.404962 
L 232.751761 290.384203 
L 232.910284 290.384203 
L 232.989545 291.404962 
L 233.306591 287.321924 
L 233.465114 291.404962 
L 233.544375 291.404962 
L 233.623636 293.446481 
L 233.782159 290.384203 
L 233.86142 290.384203 
L 233.940682 289.363443 
L 234.019943 291.404962 
L 234.099205 290.384203 
L 234.257727 291.404962 
L 234.812557 291.404962 
L 234.97108 287.321924 
L 235.129602 292.425722 
L 235.208864 292.425722 
L 235.446648 290.384203 
L 235.525909 290.384203 
L 235.60517 292.425722 
L 235.763693 290.384203 
L 236.080739 290.384203 
L 236.239261 291.404962 
L 236.318523 291.404962 
L 236.397784 288.342684 
L 236.477045 290.384203 
L 236.635568 289.363443 
L 236.71483 289.363443 
L 236.873352 291.404962 
L 237.031875 291.404962 
L 237.269659 289.363443 
L 237.428182 291.404962 
L 237.507443 291.404962 
L 237.665966 290.384203 
L 237.745227 290.384203 
L 237.983011 292.425722 
L 238.141534 292.425722 
L 238.220795 289.363443 
L 238.379318 291.404962 
L 238.45858 291.404962 
L 238.617102 289.363443 
L 238.775625 292.425722 
L 238.854886 293.446481 
L 238.934148 290.384203 
L 239.013409 293.446481 
L 239.09267 291.404962 
L 239.171932 292.425722 
L 239.251193 291.404962 
L 239.488977 293.446481 
L 239.885284 293.446481 
L 240.123068 289.363443 
L 240.360852 291.404962 
L 240.440114 291.404962 
L 240.519375 290.384203 
L 240.598636 292.425722 
L 240.83642 290.384203 
L 240.915682 290.384203 
L 241.074205 291.404962 
L 241.39125 291.404962 
L 241.549773 292.425722 
L 241.708295 289.363443 
L 241.787557 289.363443 
L 241.94608 291.404962 
L 242.104602 291.404962 
L 242.183864 292.425722 
L 242.263125 291.404962 
L 242.500909 293.446481 
L 242.659432 293.446481 
L 242.897216 289.363443 
L 242.976477 290.384203 
L 243.055739 290.384203 
L 243.214261 292.425722 
L 243.372784 291.404962 
L 243.452045 291.404962 
L 243.610568 290.384203 
L 243.68983 290.384203 
L 243.848352 292.425722 
L 244.006875 291.404962 
L 244.244659 291.404962 
L 244.403182 289.363443 
L 244.720227 289.363443 
L 244.87875 291.404962 
L 244.958011 291.404962 
L 245.116534 293.446481 
L 245.43358 290.384203 
L 245.592102 292.425722 
L 245.750625 292.425722 
L 245.829886 291.404962 
L 245.909148 293.446481 
L 245.988409 292.425722 
L 246.06767 293.446481 
L 246.463977 289.363443 
L 246.6225 292.425722 
L 246.781023 291.404962 
L 246.860284 291.404962 
L 247.018807 289.363443 
L 247.17733 292.425722 
L 247.415114 292.425722 
L 247.652898 289.363443 
L 247.81142 291.404962 
L 247.890682 291.404962 
L 248.049205 289.363443 
L 248.207727 291.404962 
L 248.286989 290.384203 
L 248.36625 293.446481 
L 248.445511 289.363443 
L 248.604034 261.802937 
L 248.762557 291.404962 
L 249.634432 291.404962 
L 249.792955 293.446481 
L 249.951477 292.425722 
L 250.030739 292.425722 
L 250.189261 291.404962 
L 250.268523 291.404962 
L 250.427045 293.446481 
L 250.506307 293.446481 
L 250.66483 291.404962 
L 250.744091 291.404962 
L 250.823352 292.425722 
L 251.061136 290.384203 
L 251.29892 290.384203 
L 251.378182 291.404962 
L 251.457443 290.384203 
L 251.536705 291.404962 
L 251.615966 290.384203 
L 251.695227 291.404962 
L 251.774489 290.384203 
L 252.012273 292.425722 
L 252.170795 291.404962 
L 252.329318 291.404962 
L 252.487841 289.363443 
L 252.725625 289.363443 
L 252.963409 293.446481 
L 253.121932 291.404962 
L 253.280455 291.404962 
L 253.438977 290.384203 
L 253.676761 290.384203 
L 253.835284 293.446481 
L 253.914545 293.446481 
L 254.15233 289.363443 
L 254.310852 290.384203 
L 254.390114 290.384203 
L 254.548636 289.363443 
L 254.78642 291.404962 
L 254.865682 291.404962 
L 255.024205 292.425722 
L 255.182727 290.384203 
L 255.420511 292.425722 
L 255.499773 289.363443 
L 255.579034 291.404962 
L 255.658295 290.384203 
L 255.737557 291.404962 
L 255.975341 289.363443 
L 256.133864 289.363443 
L 256.292386 291.404962 
L 256.371648 291.404962 
L 256.53017 289.363443 
L 256.609432 289.363443 
L 256.767955 291.404962 
L 256.926477 291.404962 
L 257.085 292.425722 
L 257.243523 291.404962 
L 257.402045 291.404962 
L 257.560568 290.384203 
L 257.877614 293.446481 
L 258.036136 289.363443 
L 258.194659 291.404962 
L 258.511705 291.404962 
L 258.670227 293.446481 
L 258.908011 289.363443 
L 259.066534 293.446481 
L 259.145795 293.446481 
L 259.225057 290.384203 
L 259.304318 293.446481 
L 259.38358 291.404962 
L 259.462841 293.446481 
L 259.621364 291.404962 
L 260.096932 291.404962 
L 260.255455 289.363443 
L 260.413977 291.404962 
L 260.493239 291.404962 
L 260.651761 290.384203 
L 260.731023 290.384203 
L 260.889545 291.404962 
L 261.206591 291.404962 
L 261.285852 290.384203 
L 261.365114 291.404962 
L 261.444375 290.384203 
L 261.523636 291.404962 
L 261.602898 290.384203 
L 261.682159 291.404962 
L 261.76142 290.384203 
L 261.840682 291.404962 
L 262.078466 289.363443 
L 262.236989 291.404962 
L 262.474773 291.404962 
L 262.554034 290.384203 
L 262.633295 291.404962 
L 262.87108 289.363443 
L 263.029602 292.425722 
L 263.346648 289.363443 
L 263.425909 289.363443 
L 263.50517 290.384203 
L 263.663693 293.446481 
L 263.822216 291.404962 
L 264.06 291.404962 
L 264.139261 290.384203 
L 264.218523 291.404962 
L 264.297784 290.384203 
L 264.377045 291.404962 
L 264.456307 289.363443 
L 264.61483 292.425722 
L 264.694091 292.425722 
L 264.852614 291.404962 
L 265.486705 291.404962 
L 265.565966 292.425722 
L 265.80375 290.384203 
L 265.962273 290.384203 
L 266.200057 293.446481 
L 266.35858 291.404962 
L 266.517102 292.425722 
L 266.675625 290.384203 
L 266.834148 291.404962 
L 266.99267 291.404962 
L 267.151193 293.446481 
L 267.230455 293.446481 
L 267.5475 290.384203 
L 267.706023 292.425722 
L 267.943807 290.384203 
L 268.10233 290.384203 
L 268.181591 284.259646 
L 268.340114 291.404962 
L 268.498636 292.425722 
L 268.657159 289.363443 
L 268.815682 291.404962 
L 268.894943 291.404962 
L 269.132727 293.446481 
L 269.29125 290.384203 
L 269.529034 290.384203 
L 269.687557 291.404962 
L 269.766818 291.404962 
L 269.84608 290.384203 
L 270.004602 291.404962 
L 270.163125 291.404962 
L 270.400909 293.446481 
L 270.559432 291.404962 
L 271.193523 291.404962 
L 271.352045 289.363443 
L 271.431307 289.363443 
L 271.58983 291.404962 
L 271.748352 293.446481 
L 271.827614 292.425722 
L 271.986136 289.363443 
L 272.065398 289.363443 
L 272.22392 291.404962 
L 272.382443 291.404962 
L 272.461705 289.363443 
L 272.540966 291.404962 
L 272.620227 290.384203 
L 272.699489 291.404962 
L 272.937273 289.363443 
L 273.095795 291.404962 
L 273.254318 291.404962 
L 273.33358 290.384203 
L 273.492102 291.404962 
L 273.650625 291.404962 
L 273.809148 290.384203 
L 273.888409 290.384203 
L 274.046932 291.404962 
L 274.205455 291.404962 
L 274.363977 292.425722 
L 274.760284 282.218127 
L 274.918807 292.425722 
L 275.07733 292.425722 
L 275.235852 282.218127 
L 275.394375 284.259646 
L 275.552898 291.404962 
L 275.71142 289.363443 
L 275.949205 291.404962 
L 276.028466 291.404962 
L 276.26625 289.363443 
L 276.424773 291.404962 
L 276.504034 291.404962 
L 276.662557 292.425722 
L 276.82108 291.404962 
L 277.217386 291.404962 
L 277.45517 293.446481 
L 277.613693 291.404962 
L 277.772216 293.446481 
L 277.851477 293.446481 
L 278.089261 289.363443 
L 278.327045 293.446481 
L 278.56483 290.384203 
L 278.723352 291.404962 
L 279.357443 291.404962 
L 279.515966 289.363443 
L 279.75375 291.404962 
L 279.912273 289.363443 
L 279.991534 289.363443 
L 280.150057 292.425722 
L 280.229318 292.425722 
L 280.387841 291.404962 
L 280.625625 293.446481 
L 280.94267 290.384203 
L 281.259716 293.446481 
L 281.418239 291.404962 
L 281.576761 292.425722 
L 281.735284 289.363443 
L 281.814545 289.363443 
L 281.973068 291.404962 
L 282.05233 290.384203 
L 282.210852 291.404962 
L 283.003466 291.404962 
L 283.161989 290.384203 
L 283.399773 292.425722 
L 283.558295 291.404962 
L 283.637557 291.404962 
L 283.79608 290.384203 
L 283.875341 290.384203 
L 284.192386 293.446481 
L 284.350909 291.404962 
L 284.667955 291.404962 
L 284.826477 290.384203 
L 284.985 291.404962 
L 285.143523 290.384203 
L 285.302045 292.425722 
L 285.381307 293.446481 
L 285.53983 291.404962 
L 285.619091 291.404962 
L 285.777614 293.446481 
L 285.856875 293.446481 
L 286.015398 289.363443 
L 286.094659 289.363443 
L 286.17392 291.404962 
L 286.253182 290.384203 
L 286.411705 291.404962 
L 286.490966 291.404962 
L 286.649489 290.384203 
L 286.808011 290.384203 
L 286.966534 291.404962 
L 287.045795 291.404962 
L 287.204318 292.425722 
L 287.28358 292.425722 
L 287.442102 291.404962 
L 287.838409 291.404962 
L 287.91767 292.425722 
L 287.996932 291.404962 
L 288.076193 292.425722 
L 288.155455 290.384203 
L 288.234716 292.425722 
L 288.393239 291.404962 
L 288.631023 291.404962 
L 288.789545 292.425722 
L 289.02733 292.425722 
L 289.106591 289.363443 
L 289.185852 290.384203 
L 289.423636 290.384203 
L 289.582159 291.404962 
L 289.740682 291.404962 
L 289.899205 289.363443 
L 290.057727 291.404962 
L 290.21625 291.404962 
L 290.374773 290.384203 
L 290.533295 293.446481 
L 290.77108 291.404962 
L 290.929602 292.425722 
L 291.088125 291.404962 
L 291.246648 291.404962 
L 291.40517 288.342684 
L 291.801477 292.425722 
L 291.96 288.342684 
L 292.039261 288.342684 
L 292.118523 275.07281 
L 292.277045 290.384203 
L 292.435568 292.425722 
L 292.752614 289.363443 
L 292.831875 289.363443 
L 292.990398 291.404962 
L 294.179318 291.404962 
L 294.25858 290.384203 
L 294.337841 291.404962 
L 294.575625 289.363443 
L 294.734148 291.404962 
L 294.89267 289.363443 
L 295.051193 292.425722 
L 295.130455 290.384203 
L 295.209716 291.404962 
L 295.288977 290.384203 
L 295.368239 291.404962 
L 295.4475 289.363443 
L 295.526761 291.404962 
L 295.606023 289.363443 
L 295.685284 291.404962 
L 295.764545 289.363443 
L 295.923068 291.404962 
L 296.081591 291.404962 
L 296.160852 290.384203 
L 296.240114 291.404962 
L 296.477898 289.363443 
L 296.63642 291.404962 
L 297.19125 291.404962 
L 297.270511 289.363443 
L 297.587557 292.425722 
L 297.666818 291.404962 
L 297.825341 293.446481 
L 298.063125 293.446481 
L 298.300909 289.363443 
L 298.459432 289.363443 
L 298.697216 291.404962 
L 298.776477 291.404962 
L 298.935 292.425722 
L 299.172784 292.425722 
L 299.410568 289.363443 
L 299.648352 291.404962 
L 299.886136 291.404962 
L 299.965398 290.384203 
L 300.12392 291.404962 
L 300.440966 291.404962 
L 300.599489 293.446481 
L 300.758011 292.425722 
L 300.837273 292.425722 
L 300.995795 291.404962 
L 301.550625 291.404962 
L 301.629886 290.384203 
L 301.709148 291.404962 
L 301.86767 290.384203 
L 301.946932 290.384203 
L 302.105455 291.404962 
L 302.263977 291.404962 
L 302.343239 290.384203 
L 302.501761 291.404962 
L 302.581023 291.404962 
L 302.739545 292.425722 
L 302.818807 292.425722 
L 302.97733 293.446481 
L 303.135852 291.404962 
L 303.215114 291.404962 
L 303.373636 293.446481 
L 303.532159 291.404962 
L 303.690682 290.384203 
L 303.849205 291.404962 
L 304.007727 291.404962 
L 304.086989 290.384203 
L 304.16625 291.404962 
L 304.324773 290.384203 
L 304.404034 290.384203 
L 304.562557 291.404962 
L 304.72108 289.363443 
L 304.879602 291.404962 
L 305.038125 291.404962 
L 305.196648 293.446481 
L 305.275909 293.446481 
L 305.434432 292.425722 
L 305.672216 295.488 
L 305.91 291.404962 
L 306.623352 291.404962 
L 306.781875 289.363443 
L 307.019659 293.446481 
L 307.178182 293.446481 
L 307.336705 291.404962 
L 307.574489 291.404962 
L 307.733011 292.425722 
L 307.891534 291.404962 
L 308.20858 291.404962 
L 308.367102 293.446481 
L 308.446364 293.446481 
L 308.684148 289.363443 
L 308.763409 289.363443 
L 309.001193 291.404962 
L 309.080455 289.363443 
L 309.238977 291.404962 
L 309.476761 291.404962 
L 309.556023 292.425722 
L 309.635284 291.404962 
L 309.714545 293.446481 
L 309.793807 291.404962 
L 309.873068 292.425722 
L 309.95233 291.404962 
L 310.031591 292.425722 
L 310.269375 290.384203 
L 310.427898 293.446481 
L 310.58642 290.384203 
L 310.665682 290.384203 
L 310.824205 292.425722 
L 310.903466 291.404962 
L 311.061989 292.425722 
L 311.220511 292.425722 
L 311.379034 291.404962 
L 311.854602 291.404962 
L 312.013125 290.384203 
L 312.092386 290.384203 
L 312.250909 291.404962 
L 312.33017 291.404962 
L 312.409432 292.425722 
L 312.726477 289.363443 
L 312.885 289.363443 
L 313.043523 291.404962 
L 313.360568 291.404962 
L 313.519091 289.363443 
L 313.598352 289.363443 
L 313.677614 288.342684 
L 313.915398 290.384203 
L 314.07392 290.384203 
L 314.232443 293.446481 
L 314.390966 293.446481 
L 314.549489 291.404962 
L 314.708011 291.404962 
L 314.866534 292.425722 
L 314.945795 292.425722 
L 315.104318 289.363443 
L 315.18358 291.404962 
L 315.262841 289.363443 
L 315.342102 291.404962 
L 315.421364 289.363443 
L 315.579886 291.404962 
L 315.896932 291.404962 
L 316.055455 290.384203 
L 316.293239 292.425722 
L 316.451761 292.425722 
L 316.610284 289.363443 
L 316.848068 291.404962 
L 316.92733 291.404962 
L 317.085852 292.425722 
L 317.244375 291.404962 
L 317.402898 291.404962 
L 317.56142 293.446481 
L 317.719943 289.363443 
L 317.878466 291.404962 
L 317.957727 291.404962 
L 318.11625 293.446481 
L 318.195511 293.446481 
L 318.354034 291.404962 
L 318.433295 291.404962 
L 318.591818 293.446481 
L 318.750341 290.384203 
L 318.908864 291.404962 
L 319.067386 291.404962 
L 319.146648 288.342684 
L 319.225909 289.363443 
L 319.384432 289.363443 
L 319.542955 292.425722 
L 319.939261 292.425722 
L 320.097784 291.404962 
L 320.256307 293.446481 
L 320.41483 291.404962 
L 320.731875 291.404962 
L 320.890398 289.363443 
L 321.04892 292.425722 
L 321.128182 292.425722 
L 321.207443 290.384203 
L 321.286705 284.259646 
L 321.445227 263.844456 
L 321.60375 291.404962 
L 321.762273 289.363443 
L 321.920795 292.425722 
L 322.079318 290.384203 
L 322.237841 293.446481 
L 322.317102 291.404962 
L 322.396364 293.446481 
L 322.554886 290.384203 
L 322.634148 290.384203 
L 322.79267 291.404962 
L 323.030455 289.363443 
L 323.109716 289.363443 
L 323.268239 291.404962 
L 323.506023 291.404962 
L 323.664545 289.363443 
L 323.743807 289.363443 
L 323.90233 291.404962 
L 324.298636 291.404962 
L 324.377898 292.425722 
L 324.53642 289.363443 
L 324.694943 289.363443 
L 324.774205 291.404962 
L 324.853466 290.384203 
L 325.011989 291.404962 
L 325.09125 291.404962 
L 325.249773 290.384203 
L 325.408295 291.404962 
L 325.487557 291.404962 
L 325.566818 288.342684 
L 325.64608 289.363443 
L 325.725341 289.363443 
L 325.883864 292.425722 
L 326.042386 292.425722 
L 326.200909 290.384203 
L 326.359432 290.384203 
L 326.517955 289.363443 
L 326.597216 289.363443 
L 326.914261 293.446481 
L 327.072784 292.425722 
L 327.231307 292.425722 
L 327.548352 289.363443 
L 327.706875 291.404962 
L 327.865398 291.404962 
L 328.02392 248.533063 
L 328.182443 292.425722 
L 328.340966 292.425722 
L 328.420227 291.404962 
L 328.57875 288.342684 
L 328.737273 291.404962 
L 328.816534 289.363443 
L 328.975057 282.218127 
L 329.054318 283.238886 
L 329.212841 291.404962 
L 329.371364 289.363443 
L 329.529886 289.363443 
L 329.688409 269.969013 
L 329.76767 270.989772 
L 329.926193 293.446481 
L 330.084716 293.446481 
L 330.243239 291.404962 
L 330.798068 291.404962 
L 330.956591 289.363443 
L 331.115114 291.404962 
L 331.432159 291.404962 
L 331.51142 292.425722 
L 331.828466 289.363443 
L 331.986989 289.363443 
L 332.06625 290.384203 
L 332.145511 289.363443 
L 332.383295 292.425722 
L 332.462557 290.384203 
L 332.541818 293.446481 
L 332.700341 291.404962 
L 332.779602 291.404962 
L 332.938125 290.384203 
L 333.096648 291.404962 
L 333.413693 291.404962 
L 333.492955 293.446481 
L 333.651477 291.404962 
L 333.730739 291.404962 
L 333.889261 292.425722 
L 334.047784 291.404962 
L 334.127045 291.404962 
L 334.285568 289.363443 
L 334.36483 289.363443 
L 334.523352 293.446481 
L 334.681875 293.446481 
L 334.99892 290.384203 
L 335.078182 290.384203 
L 335.236705 291.404962 
L 335.633011 291.404962 
L 335.712273 290.384203 
L 335.950057 292.425722 
L 336.029318 292.425722 
L 336.187841 290.384203 
L 336.346364 291.404962 
L 336.584148 291.404962 
L 336.74267 288.342684 
L 337.059716 291.404962 
L 337.2975 289.363443 
L 337.456023 291.404962 
L 337.614545 289.363443 
L 337.693807 289.363443 
L 337.85233 291.404962 
L 338.010852 291.404962 
L 338.169375 289.363443 
L 338.327898 288.342684 
L 338.48642 293.446481 
L 338.724205 291.404962 
L 338.961989 291.404962 
L 339.120511 290.384203 
L 339.199773 290.384203 
L 339.358295 291.404962 
L 339.437557 291.404962 
L 339.516818 292.425722 
L 339.675341 291.404962 
L 339.754602 291.404962 
L 339.913125 293.446481 
L 339.992386 293.446481 
L 340.150909 291.404962 
L 340.467955 291.404962 
L 340.626477 293.446481 
L 340.785 290.384203 
L 340.864261 290.384203 
L 341.022784 291.404962 
L 341.102045 291.404962 
L 341.260568 290.384203 
L 341.498352 290.384203 
L 341.736136 292.425722 
L 342.053182 289.363443 
L 342.290966 291.404962 
L 342.766534 291.404962 
L 342.925057 287.321924 
L 343.004318 287.321924 
L 343.162841 289.363443 
L 343.321364 290.384203 
L 343.400625 290.384203 
L 343.559148 291.404962 
L 343.71767 290.384203 
L 343.876193 291.404962 
L 344.2725 291.404962 
L 344.431023 290.384203 
L 344.510284 290.384203 
L 344.668807 292.425722 
L 344.82733 241.387747 
L 344.985852 291.404962 
L 345.144375 293.446481 
L 345.382159 293.446481 
L 345.540682 291.404962 
L 345.619943 291.404962 
L 345.778466 290.384203 
L 346.01625 290.384203 
L 346.174773 292.425722 
L 346.333295 291.404962 
L 346.491818 291.404962 
L 346.650341 289.363443 
L 346.729602 289.363443 
L 346.967386 291.404962 
L 347.125909 291.404962 
L 347.363693 288.342684 
L 347.522216 291.404962 
L 347.76 289.363443 
L 347.997784 293.446481 
L 348.077045 293.446481 
L 348.235568 291.404962 
L 348.711136 291.404962 
L 348.869659 290.384203 
L 348.94892 290.384203 
L 349.107443 291.404962 
L 349.265966 291.404962 
L 349.345227 293.446481 
L 349.50375 287.321924 
L 349.662273 235.26319 
L 349.820795 291.404962 
L 349.900057 291.404962 
L 350.05858 293.446481 
L 350.217102 291.404962 
L 350.454886 291.404962 
L 350.534148 290.384203 
L 350.69267 292.425722 
L 350.851193 292.425722 
L 351.088977 290.384203 
L 351.168239 291.404962 
L 351.326761 290.384203 
L 351.406023 290.384203 
L 351.564545 293.446481 
L 351.723068 291.404962 
L 351.881591 291.404962 
L 351.960852 290.384203 
L 352.119375 291.404962 
L 352.277898 291.404962 
L 352.357159 289.363443 
L 352.515682 291.404962 
L 352.99125 291.404962 
L 353.229034 289.363443 
L 353.387557 291.404962 
L 353.704602 291.404962 
L 353.783864 290.384203 
L 353.942386 291.404962 
L 354.100909 291.404962 
L 354.259432 292.425722 
L 354.417955 291.404962 
L 354.735 291.404962 
L 354.972784 289.363443 
L 355.052045 289.363443 
L 355.210568 291.404962 
L 355.28983 291.404962 
L 355.527614 287.321924 
L 355.844659 291.404962 
L 356.003182 290.384203 
L 356.161705 291.404962 
L 356.399489 291.404962 
L 356.558011 292.425722 
L 356.637273 292.425722 
L 356.795795 291.404962 
L 356.954318 291.404962 
L 357.03358 289.363443 
L 357.112841 291.404962 
L 357.271364 289.363443 
L 357.429886 289.363443 
L 357.588409 293.446481 
L 357.826193 289.363443 
L 357.984716 289.363443 
L 358.143239 291.404962 
L 358.618807 291.404962 
L 358.77733 292.425722 
L 358.935852 289.363443 
L 359.094375 292.425722 
L 359.173636 291.404962 
L 359.490682 291.404962 
L 359.728466 289.363443 
L 359.96625 291.404962 
L 360.283295 291.404962 
L 360.441818 293.446481 
L 360.600341 292.425722 
L 360.679602 292.425722 
L 360.838125 289.363443 
L 360.917386 289.363443 
L 361.075909 291.404962 
L 361.15517 291.404962 
L 361.234432 289.363443 
L 361.313693 293.446481 
L 361.472216 291.404962 
L 362.581875 291.404962 
L 362.740398 292.425722 
L 362.819659 291.404962 
L 362.89892 288.342684 
L 363.057443 292.425722 
L 363.136705 292.425722 
L 363.45375 288.342684 
L 363.612273 291.404962 
L 364.00858 291.404962 
L 364.087841 292.425722 
L 364.246364 291.404962 
L 364.404886 291.404962 
L 364.563409 293.446481 
L 364.64267 293.446481 
L 364.801193 290.384203 
L 365.038977 290.384203 
L 365.1975 289.363443 
L 365.276761 289.363443 
L 365.514545 293.446481 
L 365.593807 293.446481 
L 365.75233 290.384203 
L 365.831591 291.404962 
L 365.990114 289.363443 
L 366.069375 289.363443 
L 366.227898 291.404962 
L 366.38642 291.404962 
L 366.544943 289.363443 
L 366.703466 290.384203 
L 366.782727 290.384203 
L 366.861989 289.363443 
L 366.94125 291.404962 
L 367.020511 289.363443 
L 367.179034 291.404962 
L 367.733864 291.404962 
L 367.892386 289.363443 
L 368.050909 291.404962 
L 368.209432 291.404962 
L 368.288693 293.446481 
L 368.447216 291.404962 
L 368.526477 291.404962 
L 368.605739 290.384203 
L 368.764261 291.404962 
L 368.922784 291.404962 
L 369.081307 293.446481 
L 369.160568 293.446481 
L 369.398352 290.384203 
L 369.715398 293.446481 
L 369.953182 288.342684 
L 370.111705 291.404962 
L 370.666534 291.404962 
L 370.825057 293.446481 
L 371.062841 291.404962 
L 371.221364 291.404962 
L 371.379886 290.384203 
L 371.538409 293.446481 
L 371.61767 293.446481 
L 371.776193 290.384203 
L 372.013977 290.384203 
L 372.093239 289.363443 
L 372.1725 291.404962 
L 372.331023 289.363443 
L 372.410284 243.429266 
L 372.568807 290.384203 
L 372.72733 292.425722 
L 372.965114 290.384203 
L 373.123636 293.446481 
L 373.282159 291.404962 
L 373.36142 290.384203 
L 373.440682 292.425722 
L 373.599205 290.384203 
L 373.678466 289.363443 
L 373.757727 290.384203 
L 373.91625 293.446481 
L 373.995511 293.446481 
L 374.074773 291.404962 
L 374.154034 293.446481 
L 374.47108 289.363443 
L 374.629602 292.425722 
L 374.946648 292.425722 
L 375.10517 291.404962 
L 375.184432 291.404962 
L 375.263693 293.446481 
L 375.422216 292.425722 
L 375.501477 292.425722 
L 375.580739 291.404962 
L 375.66 292.425722 
L 375.897784 289.363443 
L 376.135568 291.404962 
L 376.21483 291.404962 
L 376.373352 289.363443 
L 376.531875 291.404962 
L 376.611136 291.404962 
L 376.769659 289.363443 
L 377.007443 289.363443 
L 377.086705 290.384203 
L 377.165966 289.363443 
L 377.324489 291.404962 
L 377.641534 291.404962 
L 377.800057 289.363443 
L 377.95858 293.446481 
L 378.117102 292.425722 
L 378.354886 292.425722 
L 378.513409 291.404962 
L 378.830455 291.404962 
L 378.909716 289.363443 
L 379.068239 291.404962 
L 379.226761 291.404962 
L 379.385284 293.446481 
L 379.464545 293.446481 
L 379.623068 291.404962 
L 379.940114 291.404962 
L 380.098636 293.446481 
L 380.257159 289.363443 
L 380.33642 289.363443 
L 380.494943 291.404962 
L 381.44608 291.404962 
L 381.604602 290.384203 
L 381.683864 290.384203 
L 381.921648 292.425722 
L 382.08017 289.363443 
L 382.397216 289.363443 
L 382.555739 291.404962 
L 382.714261 291.404962 
L 382.872784 289.363443 
L 383.031307 292.425722 
L 383.110568 292.425722 
L 383.269091 290.384203 
L 383.348352 290.384203 
L 383.506875 289.363443 
L 383.665398 293.446481 
L 383.903182 289.363443 
L 383.982443 293.446481 
L 384.061705 289.363443 
L 384.140966 293.446481 
L 384.220227 290.384203 
L 384.299489 291.404962 
L 384.37875 291.404962 
L 384.537273 292.425722 
L 384.775057 290.384203 
L 385.012841 290.384203 
L 385.171364 291.404962 
L 385.329886 291.404962 
L 385.409148 289.363443 
L 385.56767 291.404962 
L 385.726193 291.404962 
L 385.884716 293.446481 
L 386.043239 291.404962 
L 386.1225 291.404962 
L 386.281023 289.363443 
L 386.439545 288.342684 
L 386.915114 293.446481 
L 386.994375 293.446481 
L 387.232159 290.384203 
L 387.31142 291.404962 
L 387.390682 290.384203 
L 387.628466 292.425722 
L 387.707727 292.425722 
L 387.86625 291.404962 
L 388.183295 291.404962 
L 388.262557 289.363443 
L 388.341818 291.404962 
L 388.42108 289.363443 
L 388.500341 290.384203 
L 388.579602 289.363443 
L 388.896648 293.446481 
L 389.05517 291.404962 
L 389.134432 291.404962 
L 389.292955 289.363443 
L 389.451477 291.404962 
L 389.689261 291.404962 
L 389.768523 292.425722 
L 389.847784 290.384203 
L 389.927045 291.404962 
L 390.006307 289.363443 
L 390.244091 293.446481 
L 390.402614 293.446481 
L 390.561136 290.384203 
L 390.719659 289.363443 
L 390.878182 291.404962 
L 390.957443 292.425722 
L 391.115966 291.404962 
L 391.512273 291.404962 
L 391.591534 290.384203 
L 391.670795 291.404962 
L 391.750057 289.363443 
L 391.829318 291.404962 
L 391.90858 290.384203 
L 392.067102 291.404962 
L 392.146364 291.404962 
L 392.304886 293.446481 
L 392.463409 292.425722 
L 392.780455 292.425722 
L 392.938977 291.404962 
L 393.176761 291.404962 
L 393.335284 292.425722 
L 393.414545 291.404962 
L 393.493807 283.238886 
L 393.65233 292.425722 
L 393.810852 292.425722 
L 393.969375 291.404962 
L 394.048636 291.404962 
L 394.127898 290.384203 
L 394.207159 293.446481 
L 394.28642 291.404962 
L 394.365682 293.446481 
L 394.603466 291.404962 
L 394.682727 291.404962 
L 394.920511 293.446481 
L 395.158295 293.446481 
L 395.237557 289.363443 
L 395.316818 290.384203 
L 395.39608 290.384203 
L 395.554602 293.446481 
L 395.713125 291.404962 
L 395.871648 291.404962 
L 395.950909 293.446481 
L 396.109432 291.404962 
L 396.347216 291.404962 
L 396.505739 292.425722 
L 396.664261 292.425722 
L 396.743523 290.384203 
L 396.822784 291.404962 
L 396.902045 289.363443 
L 397.060568 291.404962 
L 397.13983 291.404962 
L 397.298352 290.384203 
L 397.377614 290.384203 
L 397.615398 293.446481 
L 397.77392 291.404962 
L 397.853182 235.26319 
L 398.011705 293.446481 
L 398.090966 293.446481 
L 398.249489 291.404962 
L 398.408011 291.404962 
L 398.487273 292.425722 
L 398.487273 292.425722 
" clip-path="url(#p2bfeaa16d1)" style="fill: none; stroke: #1f77b4; stroke-width: 1.5; stroke-linecap: square"/>
   </g>
   <g id="patch_3">
    <path d="M 57.6 307.584 
L 57.6 41.472 
" style="fill: none; stroke: #000000; stroke-width: 0.8; stroke-linejoin: miter; stroke-linecap: square"/>
   </g>
   <g id="patch_4">
    <path d="M 414.72 307.584 
L 414.72 41.472 
" style="fill: none; stroke: #000000; stroke-width: 0.8; stroke-linejoin: miter; stroke-linecap: square"/>
   </g>
   <g id="patch_5">
    <path d="M 57.6 307.584 
L 414.72 307.584 
" style="fill: none; stroke: #000000; stroke-width: 0.8; stroke-linejoin: miter; stroke-linecap: square"/>
   </g>
   <g id="patch_6">
    <path d="M 57.6 41.472 
L 414.72 41.472 
" style="fill: none; stroke: #000000; stroke-width: 0.8; stroke-linejoin: miter; stroke-linecap: square"/>
   </g>
   <g id="text_13">
    <!-- LEA Decryption -->
    <g transform="translate(190.08375 35.472) scale(0.12 -0.12)">
     <defs>
      <path id="DejaVuSans-4c" d="M 628 4666 
L 1259 4666 
L 1259 531 
L 3531 531 
L 3531 0 
L 628 0 
L 628 4666 
z
" transform="scale(0.015625)"/>
      <path id="DejaVuSans-45" d="M 628 4666 
L 3578 4666 
L 3578 4134 
L 1259 4134 
L 1259 2753 
L 3481 2753 
L 3481 2222 
L 1259 2222 
L 1259 531 
L 3634 531 
L 3634 0 
L 628 0 
L 628 4666 
z
" transform="scale(0.015625)"/>
      <path id="DejaVuSans-41" d="M 2188 4044 
L 1331 1722 
L 3047 1722 
L 2188 4044 
z
M 1831 4666 
L 2547 4666 
L 4325 0 
L 3669 0 
L 3244 1197 
L 1141 1197 
L 716 0 
L 50 0 
L 1831 4666 
z
" transform="scale(0.015625)"/>
      <path id="DejaVuSans-20" transform="scale(0.015625)"/>
      <path id="DejaVuSans-44" d="M 1259 4147 
L 1259 519 
L 2022 519 
Q 2988 519 3436 956 
Q 3884 1394 3884 2338 
Q 3884 3275 3436 3711 
Q 2988 4147 2022 4147 
L 1259 4147 
z
M 628 4666 
L 1925 4666 
Q 3281 4666 3915 4102 
Q 4550 3538 4550 2338 
Q 4550 1131 3912 565 
Q 3275 0 1925 0 
L 628 0 
L 628 4666 
z
" transform="scale(0.015625)"/>
      <path id="DejaVuSans-72" d="M 2631 2963 
Q 2534 3019 2420 3045 
Q 2306 3072 2169 3072 
Q 1681 3072 1420 2755 
Q 1159 2438 1159 1844 
L 1159 0 
L 581 0 
L 581 3500 
L 1159 3500 
L 1159 2956 
Q 1341 3275 1631 3429 
Q 1922 3584 2338 3584 
Q 2397 3584 2469 3576 
Q 2541 3569 2628 3553 
L 2631 2963 
z
" transform="scale(0.015625)"/>
      <path id="DejaVuSans-70" d="M 1159 525 
L 1159 -1331 
L 581 -1331 
L 581 3500 
L 1159 3500 
L 1159 2969 
Q 1341 3281 1617 3432 
Q 1894 3584 2278 3584 
Q 2916 3584 3314 3078 
Q 3713 2572 3713 1747 
Q 3713 922 3314 415 
Q 2916 -91 2278 -91 
Q 1894 -91 1617 61 
Q 1341 213 1159 525 
z
M 3116 1747 
Q 3116 2381 2855 2742 
Q 2594 3103 2138 3103 
Q 1681 3103 1420 2742 
Q 1159 2381 1159 1747 
Q 1159 1113 1420 752 
Q 1681 391 2138 391 
Q 2594 391 2855 752 
Q 3116 1113 3116 1747 
z
" transform="scale(0.015625)"/>
      <path id="DejaVuSans-74" d="M 1172 4494 
L 1172 3500 
L 2356 3500 
L 2356 3053 
L 1172 3053 
L 1172 1153 
Q 1172 725 1289 603 
Q 1406 481 1766 481 
L 2356 481 
L 2356 0 
L 1766 0 
Q 1100 0 847 248 
Q 594 497 594 1153 
L 594 3053 
L 172 3053 
L 172 3500 
L 594 3500 
L 594 4494 
L 1172 4494 
z
" transform="scale(0.015625)"/>
      <path id="DejaVuSans-69" d="M 603 3500 
L 1178 3500 
L 1178 0 
L 603 0 
L 603 3500 
z
M 603 4863 
L 1178 4863 
L 1178 4134 
L 603 4134 
L 603 4863 
z
" transform="scale(0.015625)"/>
      <path id="DejaVuSans-6f" d="M 1959 3097 
Q 1497 3097 1228 2736 
Q 959 2375 959 1747 
Q 959 1119 1226 758 
Q 1494 397 1959 397 
Q 2419 397 2687 759 
Q 2956 1122 2956 1747 
Q 2956 2369 2687 2733 
Q 2419 3097 1959 3097 
z
M 1959 3584 
Q 2709 3584 3137 3096 
Q 3566 2609 3566 1747 
Q 3566 888 3137 398 
Q 2709 -91 1959 -91 
Q 1206 -91 779 398 
Q 353 888 353 1747 
Q 353 2609 779 3096 
Q 1206 3584 1959 3584 
z
" transform="scale(0.015625)"/>
     </defs>
     <use xlink:href="#DejaVuSans-4c"/>
     <use xlink:href="#DejaVuSans-45" x="55.712891"/>
     <use xlink:href="#DejaVuSans-41" x="118.896484"/>
     <use xlink:href="#DejaVuSans-20" x="187.304688"/>
     <use xlink:href="#DejaVuSans-44" x="219.091797"/>
     <use xlink:href="#DejaVuSans-65" x="296.09375"/>
     <use xlink:href="#DejaVuSans-63" x="357.617188"/>
     <use xlink:href="#DejaVuSans-72" x="412.597656"/>
     <use xlink:href="#DejaVuSans-79" x="453.710938"/>
     <use xlink:href="#DejaVuSans-70" x="512.890625"/>
     <use xlink:href="#DejaVuSans-74" x="576.367188"/>
     <use xlink:href="#DejaVuSans-69" x="615.576172"/>
     <use xlink:href="#DejaVuSans-6f" x="643.359375"/>
     <use xlink:href="#DejaVuSans-6e" x="704.541016"/>
    </g>
   </g>
   <g id="legend_1">
    <g id="patch_7">
     <path d="M 118.491875 64.150125 
L 407.72 64.150125 
Q 409.72 64.150125 409.72 62.150125 
L 409.72 48.472 
Q 409.72 46.472 407.72 46.472 
L 118.491875 46.472 
Q 116.491875 46.472 116.491875 48.472 
L 116.491875 62.150125 
Q 116.491875 64.150125 118.491875 64.150125 
z
" style="fill: #ffffff; opacity: 0.8; stroke: #cccccc; stroke-linejoin: miter"/>
    </g>
    <g id="line2d_12">
     <path d="M 120.491875 54.570438 
L 130.491875 54.570438 
L 140.491875 54.570438 
" style="fill: none; stroke: #1f77b4; stroke-width: 1.5; stroke-linecap: square"/>
    </g>
    <g id="text_14">
     <!-- Median filtered decryption algorithm cycles per run -->
     <g transform="translate(148.491875 58.070438) scale(0.1 -0.1)">
      <defs>
       <path id="DejaVuSans-4d" d="M 628 4666 
L 1569 4666 
L 2759 1491 
L 3956 4666 
L 4897 4666 
L 4897 0 
L 4281 0 
L 4281 4097 
L 3078 897 
L 2444 897 
L 1241 4097 
L 1241 0 
L 628 0 
L 628 4666 
z
" transform="scale(0.015625)"/>
       <path id="DejaVuSans-64" d="M 2906 2969 
L 2906 4863 
L 3481 4863 
L 3481 0 
L 2906 0 
L 2906 525 
Q 2725 213 2448 61 
Q 2172 -91 1784 -91 
Q 1150 -91 751 415 
Q 353 922 353 1747 
Q 353 2572 751 3078 
Q 1150 3584 1784 3584 
Q 2172 3584 2448 3432 
Q 2725 3281 2906 2969 
z
M 947 1747 
Q 947 1113 1208 752 
Q 1469 391 1925 391 
Q 2381 391 2643 752 
Q 2906 1113 2906 1747 
Q 2906 2381 2643 2742 
Q 2381 3103 1925 3103 
Q 1469 3103 1208 2742 
Q 947 2381 947 1747 
z
" transform="scale(0.015625)"/>
       <path id="DejaVuSans-61" d="M 2194 1759 
Q 1497 1759 1228 1600 
Q 959 1441 959 1056 
Q 959 750 1161 570 
Q 1363 391 1709 391 
Q 2188 391 2477 730 
Q 2766 1069 2766 1631 
L 2766 1759 
L 2194 1759 
z
M 3341 1997 
L 3341 0 
L 2766 0 
L 2766 531 
Q 2569 213 2275 61 
Q 1981 -91 1556 -91 
Q 1019 -91 701 211 
Q 384 513 384 1019 
Q 384 1609 779 1909 
Q 1175 2209 1959 2209 
L 2766 2209 
L 2766 2266 
Q 2766 2663 2505 2880 
Q 2244 3097 1772 3097 
Q 1472 3097 1187 3025 
Q 903 2953 641 2809 
L 641 3341 
Q 956 3463 1253 3523 
Q 1550 3584 1831 3584 
Q 2591 3584 2966 3190 
Q 3341 2797 3341 1997 
z
" transform="scale(0.015625)"/>
       <path id="DejaVuSans-66" d="M 2375 4863 
L 2375 4384 
L 1825 4384 
Q 1516 4384 1395 4259 
Q 1275 4134 1275 3809 
L 1275 3500 
L 2222 3500 
L 2222 3053 
L 1275 3053 
L 1275 0 
L 697 0 
L 697 3053 
L 147 3053 
L 147 3500 
L 697 3500 
L 697 3744 
Q 697 4328 969 4595 
Q 1241 4863 1831 4863 
L 2375 4863 
z
" transform="scale(0.015625)"/>
       <path id="DejaVuSans-67" d="M 2906 1791 
Q 2906 2416 2648 2759 
Q 2391 3103 1925 3103 
Q 1463 3103 1205 2759 
Q 947 2416 947 1791 
Q 947 1169 1205 825 
Q 1463 481 1925 481 
Q 2391 481 2648 825 
Q 2906 1169 2906 1791 
z
M 3481 434 
Q 3481 -459 3084 -895 
Q 2688 -1331 1869 -1331 
Q 1566 -1331 1297 -1286 
Q 1028 -1241 775 -1147 
L 775 -588 
Q 1028 -725 1275 -790 
Q 1522 -856 1778 -856 
Q 2344 -856 2625 -561 
Q 2906 -266 2906 331 
L 2906 616 
Q 2728 306 2450 153 
Q 2172 0 1784 0 
Q 1141 0 747 490 
Q 353 981 353 1791 
Q 353 2603 747 3093 
Q 1141 3584 1784 3584 
Q 2172 3584 2450 3431 
Q 2728 3278 2906 2969 
L 2906 3500 
L 3481 3500 
L 3481 434 
z
" transform="scale(0.015625)"/>
       <path id="DejaVuSans-68" d="M 3513 2113 
L 3513 0 
L 2938 0 
L 2938 2094 
Q 2938 2591 2744 2837 
Q 2550 3084 2163 3084 
Q 1697 3084 1428 2787 
Q 1159 2491 1159 1978 
L 1159 0 
L 581 0 
L 581 4863 
L 1159 4863 
L 1159 2956 
Q 1366 3272 1645 3428 
Q 1925 3584 2291 3584 
Q 2894 3584 3203 3211 
Q 3513 2838 3513 2113 
z
" transform="scale(0.015625)"/>
       <path id="DejaVuSans-6d" d="M 3328 2828 
Q 3544 3216 3844 3400 
Q 4144 3584 4550 3584 
Q 5097 3584 5394 3201 
Q 5691 2819 5691 2113 
L 5691 0 
L 5113 0 
L 5113 2094 
Q 5113 2597 4934 2840 
Q 4756 3084 4391 3084 
Q 3944 3084 3684 2787 
Q 3425 2491 3425 1978 
L 3425 0 
L 2847 0 
L 2847 2094 
Q 2847 2600 2669 2842 
Q 2491 3084 2119 3084 
Q 1678 3084 1418 2786 
Q 1159 2488 1159 1978 
L 1159 0 
L 581 0 
L 581 3500 
L 1159 3500 
L 1159 2956 
Q 1356 3278 1631 3431 
Q 1906 3584 2284 3584 
Q 2666 3584 2933 3390 
Q 3200 3197 3328 2828 
z
" transform="scale(0.015625)"/>
       <path id="DejaVuSans-75" d="M 544 1381 
L 544 3500 
L 1119 3500 
L 1119 1403 
Q 1119 906 1312 657 
Q 1506 409 1894 409 
Q 2359 409 2629 706 
Q 2900 1003 2900 1516 
L 2900 3500 
L 3475 3500 
L 3475 0 
L 2900 0 
L 2900 538 
Q 2691 219 2414 64 
Q 2138 -91 1772 -91 
Q 1169 -91 856 284 
Q 544 659 544 1381 
z
M 1991 3584 
L 1991 3584 
z
" transform="scale(0.015625)"/>
      </defs>
      <use xlink:href="#DejaVuSans-4d"/>
      <use xlink:href="#DejaVuSans-65" x="86.279297"/>
      <use xlink:href="#DejaVuSans-64" x="147.802734"/>
      <use xlink:href="#DejaVuSans-69" x="211.279297"/>
      <use xlink:href="#DejaVuSans-61" x="239.0625"/>
      <use xlink:href="#DejaVuSans-6e" x="300.341797"/>
      <use xlink:href="#DejaVuSans-20" x="363.720703"/>
      <use xlink:href="#DejaVuSans-66" x="395.507812"/>
      <use xlink:href="#DejaVuSans-69" x="430.712891"/>
      <use xlink:href="#DejaVuSans-6c" x="458.496094"/>
      <use xlink:href="#DejaVuSans-74" x="486.279297"/>
      <use xlink:href="#DejaVuSans-65" x="525.488281"/>
      <use xlink:href="#DejaVuSans-72" x="587.011719"/>
      <use xlink:href="#DejaVuSans-65" x="625.875"/>
      <use xlink:href="#DejaVuSans-64" x="687.398438"/>
      <use xlink:href="#DejaVuSans-20" x="750.875"/>
      <use xlink:href="#DejaVuSans-64" x="782.662109"/>
      <use xlink:href="#DejaVuSans-65" x="846.138672"/>
      <use xlink:href="#DejaVuSans-63" x="907.662109"/>
      <use xlink:href="#DejaVuSans-72" x="962.642578"/>
      <use xlink:href="#DejaVuSans-79" x="1003.755859"/>
      <use xlink:href="#DejaVuSans-70" x="1062.935547"/>
      <use xlink:href="#DejaVuSans-74" x="1126.412109"/>
      <use xlink:href="#DejaVuSans-69" x="1165.621094"/>
      <use xlink:href="#DejaVuSans-6f" x="1193.404297"/>
      <use xlink:href="#DejaVuSans-6e" x="1254.585938"/>
      <use xlink:href="#DejaVuSans-20" x="1317.964844"/>
      <use xlink:href="#DejaVuSans-61" x="1349.751953"/>
      <use xlink:href="#DejaVuSans-6c" x="1411.03125"/>
      <use xlink:href="#DejaVuSans-67" x="1438.814453"/>
      <use xlink:href="#DejaVuSans-6f" x="1502.291016"/>
      <use xlink:href="#DejaVuSans-72" x="1563.472656"/>
      <use xlink:href="#DejaVuSans-69" x="1604.585938"/>
      <use xlink:href="#DejaVuSans-74" x="1632.369141"/>
      <use xlink:href="#DejaVuSans-68" x="1671.578125"/>
      <use xlink:href="#DejaVuSans-6d" x="1734.957031"/>
      <use xlink:href="#DejaVuSans-20" x="1832.369141"/>
      <use xlink:href="#DejaVuSans-63" x="1864.15625"/>
      <use xlink:href="#DejaVuSans-79" x="1919.136719"/>
      <use xlink:href="#DejaVuSans-63" x="1978.316406"/>
      <use xlink:href="#DejaVuSans-6c" x="2033.296875"/>
      <use xlink:href="#DejaVuSans-65" x="2061.080078"/>
      <use xlink:href="#DejaVuSans-73" x="2122.603516"/>
      <use xlink:href="#DejaVuSans-20" x="2174.703125"/>
      <use xlink:href="#DejaVuSans-70" x="2206.490234"/>
      <use xlink:href="#DejaVuSans-65" x="2269.966797"/>
      <use xlink:href="#DejaVuSans-72" x="2331.490234"/>
      <use xlink:href="#DejaVuSans-20" x="2372.603516"/>
      <use xlink:href="#DejaVuSans-72" x="2404.390625"/>
      <use xlink:href="#DejaVuSans-75" x="2445.503906"/>
      <use xlink:href="#DejaVuSans-6e" x="2508.882812"/>
     </g>
    </g>
   </g>
  </g>
 </g>
 <defs>
  <clipPath id="p2bfeaa16d1">
   <rect x="57.6" y="41.472" width="357.12" height="266.112"/>
  </clipPath>
 </defs>
</svg>
